<svg xmlns="http://www.w3.org/2000/svg" xml:space="preserve" width="128mm" height="128mm" viewBox="0 0 128 128"><g transform="translate(-40.466 -90.214)"><rect width="128" height="128" x="40.466" y="90.214" ry="0" style="fill:#08f;fill-opacity:1;stroke-width:.264583"/><path d="M98.962 194.137c-11.792-1.358-24.637-7.136-31.536-14.186-6.892-7.043-7.31-14.595-1.61-29.071 2.39-6.073 2.901-7.897 3.404-12.144.828-6.993 2.172-15.628 2.837-18.228 1.567-6.127 4.262-8.04 7.041-4.998 1.007 1.102 4.333 7.557 5.47 10.614.342.921.746 1.675.898 1.675s1.916-.547 3.92-1.216c2.006-.668 5.532-1.541 7.837-1.94 7.633-1.319 13.422-.836 21.71 1.811 3.7 1.183 4.77 1.408 4.896 1.03.43-1.288 4.805-9.826 5.71-11.141 2.112-3.07 4.623-2.801 6.21.665 1.41 3.079 2.225 7.002 3.344 16.083 1.249 10.133 1.142 9.658 4.025 17.815 3.803 10.756 4.378 13.649 3.703 18.61-.583 4.276-1.939 6.866-5.424 10.36-6.128 6.142-16.145 11.172-26.67 13.392-4.532.955-11.62 1.346-15.765.869m7.062-20.605c1.48-.618 3.06-2.496 3.06-3.638 0-1.216-1.769-2.791-3.427-3.052-2.805-.44-5.746 1.082-5.746 2.975 0 1.357 1.084 2.831 2.581 3.51 1.776.807 2.053.823 3.532.205m-14.378-7.948c1.722-.782 3.43-2.753 3.982-4.596 1.643-5.485-1.662-10.964-6.614-10.964-1.723 0-4.078 1.672-5.217 3.703-2.267 4.042-.769 9.798 3.053 11.731 1.894.959 2.905.985 4.796.127m30.484-.034c2.391-1.22 4.24-4.465 4.24-7.443 0-2.146-1.268-5.048-2.817-6.448-3.087-2.789-7.653-1.771-9.576 2.135-.66 1.34-.834 2.257-.825 4.344.017 3.924 1.598 6.519 4.63 7.6 1.87.666 2.747.628 4.348-.188" style="fill:#fff;fill-opacity:1"/></g></svg>